<?xml version="1.0" encoding="UTF-8" ?>
<!DOCTYPE svg PUBLIC "-//W3C//DTD SVG 1.1//EN" "http://www.w3.org/Graphics/SVG/1.1/DTD/svg11.dtd">
<svg width="149pt" height="130pt" viewBox="0 0 149 130" version="1.1" xmlns="http://www.w3.org/2000/svg">
<g id="#ffffffff">
</g>
<g id="#61dafbff">
<path fill="#61dafb" opacity="1.00" d=" M 44.46 0.00 L 44.69 0.00 C 56.45 0.94 66.16 8.48 74.61 16.07 C 82.30 8.84 91.13 2.12 101.70 0.00 L 106.33 0.00 C 110.92 0.98 114.91 4.15 116.56 8.59 C 120.70 18.82 118.95 30.16 116.82 40.64 C 126.94 43.87 137.66 48.01 144.36 56.69 C 148.20 61.41 148.10 68.57 144.27 73.28 C 137.65 81.92 127.08 86.13 117.08 89.48 C 119.38 99.95 120.93 111.42 116.59 121.57 C 114.80 126.05 110.70 129.24 105.96 130.00 L 100.89 130.00 C 90.81 127.43 82.17 121.23 74.78 114.10 C 66.94 121.56 57.65 128.24 46.72 130.00 L 42.72 130.00 C 38.48 128.98 34.52 126.44 32.73 122.34 C 27.86 112.05 30.16 100.38 32.03 89.66 C 21.88 86.55 11.33 82.04 4.73 73.35 C 0.94 68.58 0.79 61.42 4.62 56.63 C 11.27 47.85 22.07 43.76 32.22 40.57 C 30.07 29.82 27.93 18.05 32.71 7.69 C 34.73 3.03 39.49 0.28 44.46 0.00 M 37.67 11.65 C 34.72 20.49 36.32 30.09 38.29 38.97 C 44.76 37.68 51.29 36.71 57.84 35.91 C 61.66 30.52 65.91 25.47 70.21 20.46 C 63.26 14.25 55.50 7.95 46.04 6.38 C 42.33 5.63 38.69 8.07 37.67 11.65 M 78.91 20.56 C 83.31 25.43 87.39 30.58 91.22 35.91 C 97.80 36.65 104.32 37.81 110.83 38.99 C 112.66 30.14 114.16 20.67 111.27 11.89 C 110.24 8.31 106.75 5.38 102.88 6.22 C 93.43 7.84 85.75 14.24 78.91 20.56 M 65.87 35.44 C 71.64 35.23 77.43 35.25 83.20 35.43 C 80.49 31.84 77.59 28.41 74.62 25.03 C 71.48 28.31 68.60 31.83 65.87 35.44 M 61.29 42.11 C 56.03 49.23 51.88 57.12 47.95 65.04 C 51.83 73.06 56.30 80.79 61.29 88.17 C 70.13 88.72 79.00 88.72 87.84 88.10 C 92.76 80.68 97.21 72.95 101.10 64.94 C 97.12 57.13 93.00 49.28 87.79 42.21 C 79.10 41.02 70.03 41.25 61.29 42.11 M 39.98 45.05 C 41.42 49.29 42.88 53.52 44.61 57.65 C 47.43 52.66 50.13 47.60 53.28 42.80 C 48.80 43.28 44.36 44.00 39.98 45.05 M 95.76 42.85 C 98.90 47.63 101.54 52.72 104.47 57.62 C 106.19 53.54 107.66 49.37 109.08 45.18 C 104.72 43.99 100.25 43.30 95.76 42.85 M 9.41 60.53 C 6.34 64.20 8.71 69.36 11.72 72.24 C 18.03 77.82 25.81 81.44 33.83 83.86 C 35.96 77.46 38.31 71.14 41.10 65.00 C 38.33 58.99 36.03 52.78 33.96 46.49 C 25.01 49.37 15.37 52.82 9.41 60.53 M 115.13 46.58 C 113.07 52.82 110.72 58.96 107.98 64.93 C 110.85 70.94 113.26 77.17 115.39 83.48 C 122.95 80.99 130.62 78.00 136.63 72.62 C 138.72 70.56 141.05 68.09 141.04 64.96 C 141.27 61.75 138.67 59.39 136.61 57.31 C 130.52 51.94 122.74 49.06 115.13 46.58 M 44.60 72.36 C 42.91 76.58 41.44 80.87 39.85 85.13 C 44.25 86.49 48.88 86.77 53.41 87.48 C 50.28 82.56 47.45 77.45 44.60 72.36 M 104.49 72.07 C 101.74 77.24 98.81 82.31 95.74 87.29 C 100.32 86.78 104.89 86.10 109.37 84.99 C 107.93 80.61 106.25 76.33 104.49 72.07 M 91.28 94.14 C 87.48 99.48 83.56 104.75 79.09 109.55 C 84.61 114.94 90.85 119.87 98.14 122.60 C 101.18 123.58 104.87 124.75 107.79 122.86 C 110.29 120.93 111.94 117.96 112.41 114.85 C 113.61 106.92 113.11 98.79 111.08 91.04 C 104.53 92.35 97.93 93.43 91.28 94.14 M 36.07 108.96 C 36.22 113.50 36.80 118.54 39.99 122.04 C 42.42 123.77 45.73 124.21 48.58 123.40 C 56.93 120.92 64.12 115.68 70.41 109.79 C 66.06 104.69 61.76 99.54 57.83 94.11 C 51.33 93.61 44.84 92.68 38.49 91.20 C 36.55 96.89 36.04 102.98 36.07 108.96 M 65.87 94.58 C 68.68 98.19 71.61 101.70 74.63 105.14 C 77.86 101.90 80.59 98.22 83.35 94.58 C 77.53 94.76 71.70 94.74 65.87 94.58 Z" />
<path fill="#61dafb" opacity="1.00" d=" M 71.30 52.24 C 79.53 49.75 88.56 57.46 87.40 65.99 C 87.08 73.70 78.79 79.62 71.38 77.52 C 65.05 76.09 60.59 69.44 61.66 63.03 C 62.25 57.88 66.35 53.53 71.30 52.24 Z" />
</g>
</svg>
